<?xml version="1.0" encoding="UTF-8"?>
<svg id="Four" xmlns="http://www.w3.org/2000/svg" viewBox="0 0 200 200">
  <g id="border4">
    <path d="M100,197.5c-53.76,0-97.5-43.74-97.5-97.5S46.24,2.5,100,2.5s97.5,43.74,97.5,97.5-43.74,97.5-97.5,97.5ZM100,14.5C52.86,14.5,14.5,52.85,14.5,100s38.36,85.5,85.5,85.5,85.5-38.35,85.5-85.5S147.14,14.5,100,14.5Z" fill="#000" stroke-width="0"/>
  </g>
  <g id="num4">
    <path d="M109.96,148.21v-29.03s-49.52-.01-49.52-.01v-9.51s47.58-68.05,47.58-68.05h15.58s-.02,66.26-.02,66.26h14.92s0,11.32,0,11.32h-14.92s0,29.02,0,29.02h-13.61ZM109.97,107.87v-35.59c0-5.58.17-11.15.5-16.73h-.49c-3.28,6.23-5.91,10.82-8.86,15.74l-26.08,36.24v.33h34.93Z" fill="#000" stroke-width="0"/>
  </g>
</svg>