<?xml version="1.0" encoding="UTF-8"?>
<svg id="Ten" xmlns="http://www.w3.org/2000/svg" viewBox="0 0 200 200">
  <g id="border10">
    <path d="M100,197.5c-53.76,0-97.5-43.74-97.5-97.5S46.24,2.5,100,2.5s97.5,43.74,97.5,97.5-43.74,97.5-97.5,97.5ZM100,14.5C52.85,14.5,14.5,52.86,14.5,100s38.35,85.5,85.5,85.5,85.5-38.36,85.5-85.5S147.15,14.5,100,14.5Z" fill="#000" stroke-width="0"/>
  </g>
  <g id="num10">
    <path d="M68.35,68.64h-.23l-12.9,6.96-1.94-7.64,16.21-8.67h8.56s-.02,74.17-.02,74.17h-9.7s.01-64.81.01-64.81Z" fill="#000" stroke-width="0"/>
    <path d="M154.38,95.59c0,25.22-9.37,39.14-25.8,39.13-14.49,0-24.3-13.58-24.52-38.12,0-24.87,10.74-38.57,25.8-38.56,15.63,0,24.53,13.93,24.52,37.55ZM114.1,96.72c0,19.28,5.93,30.24,15.05,30.24,10.27,0,15.18-11.98,15.18-30.92,0-18.26-4.67-30.24-15.05-30.24-8.79,0-15.18,10.72-15.18,30.92Z" fill="#000" stroke-width="0"/>
  </g>
</svg>