<?xml version="1.0" encoding="UTF-8"?>
<svg id="Eleven" xmlns="http://www.w3.org/2000/svg" viewBox="0 0 200 200">
  <g id="border11">
    <path d="M100,197.5c-53.76,0-97.5-43.74-97.5-97.5S46.24,2.5,100,2.5s97.5,43.74,97.5,97.5-43.74,97.5-97.5,97.5ZM100,14.5C52.86,14.5,14.5,52.86,14.5,100s38.36,85.5,85.5,85.5,85.5-38.36,85.5-85.5S147.14,14.5,100,14.5Z" fill="#000" stroke-width="0"/>
  </g>
  <g id="num11">
    <path d="M68.4,68.68h-.23l-12.89,6.96-1.94-7.64,16.2-8.67h8.56v74.17h-9.7v-64.81Z" fill="#000" stroke-width="0"/>
    <path d="M126.93,68.68h-.23l-12.89,6.96-1.94-7.64,16.2-8.67h8.56v74.17h-9.7v-64.81Z" fill="#000" stroke-width="0"/>
  </g>
</svg>