<?xml version="1.0" encoding="UTF-8"?>
<svg id="Six" xmlns="http://www.w3.org/2000/svg" viewBox="0 0 200 200">
  <g id="border6">
    <path d="M100,197.5c-53.76,0-97.5-43.74-97.5-97.5S46.24,2.5,100,2.5s97.5,43.74,97.5,97.5-43.74,97.5-97.5,97.5ZM100,14.5C52.85,14.5,14.5,52.85,14.5,100s38.35,85.5,85.5,85.5,85.5-38.36,85.5-85.5S147.15,14.5,100,14.5Z" fill="#000" stroke-width="0"/>
  </g>
  <g id="num6">
    <path d="M126.17,51.68c-2.95-.17-6.72,0-10.82.65-22.63,3.77-34.61,20.33-37.07,37.88h.49c5.09-6.72,13.94-12.3,25.75-12.29,18.86,0,32.14,13.62,32.14,34.45,0,19.52-13.29,37.55-35.43,37.55-22.8,0-37.72-17.72-37.71-45.44,0-20.99,7.55-37.55,18.05-48.05,8.86-8.69,20.67-14.1,34.12-15.74,4.26-.66,7.87-.82,10.5-.82v11.81ZM122.06,113.18c0-15.25-8.69-24.44-21.97-24.44-8.69,0-16.73,5.41-20.67,13.12-.98,1.64-1.64,3.77-1.64,6.4.32,17.55,8.36,30.51,23.45,30.51,12.46,0,20.83-10.33,20.83-25.58Z" fill="#000" stroke-width="0"/>
  </g>
</svg>