<?xml version="1.0" encoding="UTF-8"?>
<svg id="Three" xmlns="http://www.w3.org/2000/svg" viewBox="0 0 200 200">
  <g id="border3">
    <path d="M100,197.5c-53.76,0-97.5-43.74-97.5-97.5S46.24,2.5,100,2.5s97.5,43.74,97.5,97.5-43.74,97.5-97.5,97.5ZM100,14.5C52.86,14.5,14.5,52.85,14.5,100s38.36,85.5,85.5,85.5,85.5-38.35,85.5-85.5S147.14,14.5,100,14.5Z" fill="#000" stroke-width="0"/>
  </g>
  <g id="num3">
    <path d="M68.8,131.59c4.1,2.62,13.61,6.73,23.62,6.73,18.53,0,24.27-11.8,24.11-20.66-.16-14.92-13.61-21.32-27.55-21.33h-8.04s0-10.83,0-10.83h8.04c10.5,0,23.78-5.4,23.79-18.03,0-8.53-5.41-16.07-18.69-16.08-8.53,0-16.73,3.77-21.32,7.05l-3.77-10.5c5.58-4.1,16.4-8.2,27.88-8.19,20.99,0,30.5,12.47,30.5,25.43,0,10.99-6.57,20.33-19.69,25.09v.33c13.12,2.63,23.78,12.47,23.77,27.39,0,17.06-13.29,31.98-38.88,31.97-11.97,0-22.47-3.78-27.71-7.22l3.94-11.15Z" fill="#000" stroke-width="0"/>
  </g>
</svg>