<?xml version="1.0" encoding="UTF-8"?>
<svg id="Nine" xmlns="http://www.w3.org/2000/svg" viewBox="0 0 200 200">
  <g id="border9">
    <path d="M100,197.5c-53.76,0-97.5-43.74-97.5-97.5S46.24,2.5,100,2.5s97.5,43.74,97.5,97.5-43.74,97.5-97.5,97.5ZM100,14.5C52.85,14.5,14.5,52.86,14.5,100s38.35,85.5,85.5,85.5,85.5-38.36,85.5-85.5S147.15,14.5,100,14.5Z" fill="#000" stroke-width="0"/>
  </g>
  <g id="num9">
    <path d="M73.62,137.88c3.12.33,6.72,0,11.64-.49,8.36-1.15,16.24-4.59,22.31-10.33,7.05-6.39,12.14-15.74,14.11-28.37h-.49c-5.91,7.21-14.43,11.48-25.09,11.47-19.19,0-31.49-14.44-31.48-32.64,0-20.17,14.6-37.88,36.42-37.88,21.81,0,35.26,17.72,35.25,44.94,0,23.45-7.88,39.85-18.38,50.02-8.2,8.03-19.52,12.95-31,14.26-5.25.82-9.84.98-13.28.82v-11.81ZM78.88,76.55c0,13.28,8.03,22.63,20.5,22.64,9.68,0,17.22-4.75,20.99-11.15.82-1.31,1.31-2.95,1.31-5.25,0-18.2-6.72-32.15-21.8-32.15-12.3,0-20.99,10.82-21,25.91Z" fill="#000" stroke-width="0"/>
  </g>
</svg>