<?xml version="1.0" encoding="UTF-8"?>
<svg id="Five" xmlns="http://www.w3.org/2000/svg" viewBox="0 0 200 200">
  <g id="border5">
    <path d="M100,197.5c-53.76,0-97.5-43.74-97.5-97.5S46.24,2.5,100,2.5s97.5,43.74,97.5,97.5-43.74,97.5-97.5,97.5ZM100,14.5C52.85,14.5,14.5,52.85,14.5,100s38.35,85.5,85.5,85.5,85.5-38.36,85.5-85.5S147.15,14.5,100,14.5Z" fill="#000" stroke-width="0"/>
  </g>
  <g id="num5">
    <path d="M128.96,53.6h-40.67s-4.11,27.38-4.11,27.38c2.46-.33,4.76-.65,8.69-.65,8.2,0,16.4,1.81,22.96,5.75,8.36,4.76,15.25,13.94,15.25,27.39,0,20.83-16.57,36.41-39.7,36.4-11.64,0-21.48-3.29-26.57-6.57l3.61-10.99c4.43,2.62,13.12,5.91,22.79,5.91,13.61,0,25.26-8.85,25.26-23.12-.16-13.78-9.34-23.62-30.66-23.62-6.07,0-10.82.65-14.76,1.14l6.9-51.17h51s0,12.15,0,12.15Z" fill="#000" stroke-width="0"/>
  </g>
</svg>