<?xml version="1.0" encoding="UTF-8"?>
<svg id="Twelve" xmlns="http://www.w3.org/2000/svg" viewBox="0 0 200 200">
  <g id="border12">
    <path d="M100,197.5c-53.76,0-97.5-43.74-97.5-97.5S46.24,2.5,100,2.5s97.5,43.74,97.5,97.5-43.74,97.5-97.5,97.5ZM100,14.5C52.86,14.5,14.5,52.86,14.5,100s38.36,85.5,85.5,85.5,85.5-38.36,85.5-85.5S147.14,14.5,100,14.5Z" fill="#000" stroke-width="0"/>
  </g>
  <g id="num12">
    <path d="M68.4,68.68h-.23l-12.89,6.96-1.94-7.64,16.2-8.67h8.56v74.17h-9.7v-64.81Z" fill="#000" stroke-width="0"/>
    <path d="M105.13,133.49v-6.16l7.87-7.64c18.94-18.03,27.5-27.61,27.61-38.8,0-7.53-3.65-14.49-14.72-14.49-6.73,0-12.32,3.42-15.75,6.28l-3.2-7.07c5.13-4.34,12.44-7.53,21-7.53,15.97,0,22.71,10.95,22.71,21.57,0,13.69-9.93,24.76-25.56,39.82l-5.93,5.48v.23h33.32v8.33h-47.35Z" fill="#000" stroke-width="0"/>
  </g>
</svg>