<?xml version="1.0" encoding="UTF-8"?>
<svg id="Eight" xmlns="http://www.w3.org/2000/svg" viewBox="0 0 200 200">
  <g id="border8">
    <path d="M100,197.5c-53.76,0-97.5-43.74-97.5-97.5S46.24,2.5,100,2.5s97.5,43.74,97.5,97.5-43.74,97.5-97.5,97.5ZM100,14.5C52.86,14.5,14.5,52.85,14.5,100s38.36,85.5,85.5,85.5,85.5-38.36,85.5-85.5S147.14,14.5,100,14.5Z" fill="#000" stroke-width="0"/>
  </g>
  <g id="num8">
    <path d="M64,121.14c0-13.45,8.04-22.96,21.16-28.53l-.16-.49c-11.81-5.58-16.89-14.76-16.89-23.95,0-16.89,14.28-28.37,32.97-28.36,20.66,0,30.99,12.96,30.99,26.25,0,9.02-4.43,18.69-17.55,24.92v.49c13.28,5.25,21.48,14.6,21.48,27.56,0,18.53-15.91,30.99-36.25,30.99-22.3,0-35.75-13.29-35.75-28.87ZM121.4,120.5c0-12.96-9.02-19.19-23.45-23.29-12.47,3.6-19.19,11.8-19.19,21.97-.49,10.82,7.7,20.34,21.32,20.34,12.96,0,21.32-8.03,21.32-19.02ZM81.72,67.19c0,10.66,8.03,16.4,20.33,19.68,9.18-3.11,16.24-9.67,16.24-19.35,0-8.53-5.08-17.39-18.04-17.39-11.97,0-18.53,7.87-18.54,17.05Z" fill="#000" stroke-width="0"/>
  </g>
</svg>