<?xml version="1.0" encoding="UTF-8"?>
<svg id="Two" xmlns="http://www.w3.org/2000/svg" viewBox="0 0 200 200">
  <g id="border2">
    <path d="M100,197.5c-53.76,0-97.5-43.74-97.5-97.5S46.24,2.5,100,2.5s97.5,43.74,97.5,97.5-43.74,97.5-97.5,97.5ZM100,14.5C52.85,14.5,14.5,52.85,14.5,100s38.35,85.5,85.5,85.5,85.5-38.35,85.5-85.5S147.15,14.5,100,14.5Z" fill="#000" stroke-width="0"/>
  </g>
  <g id="num2">
    <path d="M65.35,148.1v-8.86s11.32-10.99,11.32-10.99c27.23-25.91,39.53-39.68,39.7-55.75,0-10.82-5.24-20.83-21.15-20.83-9.68,0-17.71,4.92-22.63,9.01l-4.59-10.17c7.38-6.23,17.88-10.82,30.18-10.82,22.96,0,32.63,15.75,32.63,31,0,19.68-14.28,35.58-36.75,57.23l-8.53,7.87v.33h47.89s0,11.98,0,11.98l-68.06-.02Z" fill="#000" stroke-width="0"/>
  </g>
</svg>