<?xml version="1.0" encoding="UTF-8"?>
<svg id="Seven" xmlns="http://www.w3.org/2000/svg" viewBox="0 0 200 200">
  <g id="border7">
    <path d="M100,197.5c-53.76,0-97.5-43.74-97.5-97.5S46.24,2.5,100,2.5s97.5,43.74,97.5,97.5-43.74,97.5-97.5,97.5ZM100,14.5C52.86,14.5,14.5,52.85,14.5,100s38.36,85.5,85.5,85.5,85.5-38.36,85.5-85.5S147.14,14.5,100,14.5Z" fill="#000" stroke-width="0"/>
  </g>
  <g id="num7">
    <path d="M134.54,41.57v9.51s-46.44,97.08-46.44,97.08h-14.92s46.27-94.29,46.27-94.29v-.33h-52.15s0-11.98,0-11.98l67.24.02Z" fill="#000" stroke-width="0"/>
  </g>
</svg>