<?xml version="1.0" encoding="UTF-8"?>
<svg id="heart" xmlns="http://www.w3.org/2000/svg" viewBox="0 0 256 256">
  <path d="M225.74,54.39h0c-25.52-24.34-65.03-8.26-94.42,11.27,10.91,16.59,17.26,36.44,17.26,57.78,0,40.82-23.23,76.22-57.2,93.69l32.84,31.32c.76.72,1.77,1.03,2.76.98.99.05,2-.25,2.76-.98l95.98-91.53c1.49-1.42,2.89-2.9,4.23-4.41l1.76-1.68c.43-.41.69-.91.85-1.42,22.61-28.41,20.33-69.08-6.85-95.01Z" fill="#ff1d25" stroke-width="0"/>
  <path d="M148.59,123.44c0-21.34-6.35-41.19-17.26-57.78-1.61,1.07-3.18,2.15-4.73,3.23-29.75-20.88-71.43-40.17-98.34-14.5h0C1.07,80.32-1.2,120.99,21.4,149.4c.17.52.42,1.01.85,1.42l1.76,1.68c1.34,1.51,2.74,2.99,4.23,4.41l63.14,60.21c33.96-17.47,57.2-52.87,57.2-93.69Z" fill="#f41929" opacity=".99" stroke-width="0"/>
  <ellipse cx="64.86" cy="75.65" rx="19.45" ry="10.15" fill="#eadcd3" stroke-width="0"/>
</svg>