<?xml version="1.0" encoding="UTF-8"?>
<svg id="setting" xmlns="http://www.w3.org/2000/svg" viewBox="0 0 256 256">
  <g id="setting1">
    <path d="M252.24,97.13c-3.47-14.01-9.25-27.12-16.91-38.88-12.97,11.03-30.52,12.23-40.46,2.3-9.91-9.91-8.74-27.37,2.19-40.33-12.65-8.12-26.83-14.07-42.01-17.34-1.15,17.26-12.8,30.82-27.02,30.82s-25.88-13.57-27.02-30.83c-16.31,3.5-31.47,10.1-44.83,19.17,9.5,12.48,10.32,28.53,1.17,38.05-9.16,9.52-25.22,9.33-38.07.33-6.98,11.2-12.27,23.55-15.53,36.71,16.82,1.49,29.9,12.99,29.9,26.95s-13.96,26.21-31.57,27.07c3.03,16.57,9.24,32.02,17.98,45.71,13-11.26,30.73-12.56,40.74-2.54,10.06,10.06,8.7,27.91-2.72,40.93,12.89,8.42,27.39,14.58,42.93,17.91,1.2-17.2,12.83-30.69,27.01-30.69s25.81,13.49,27.01,30.68c16.22-3.49,31.3-10.05,44.6-19.05-12.61-12.05-15.5-29.87-6.24-40.78,9.7-11.42,29.03-10.92,43.18,1.1.19.16.37.33.55.49,8.1-13.19,13.88-27.97,16.76-43.76-17.58-.89-31.49-12.66-31.49-27.06s13.05-25.42,29.83-26.94ZM128.75,201.75c-40.73,0-73.75-33.02-73.75-73.75s33.02-73.75,73.75-73.75,73.75,33.02,73.75,73.75-33.02,73.75-73.75,73.75Z" fill="#000" stroke-width="0"/>
  </g>
</svg>