<?xml version="1.0" encoding="UTF-8"?>
<svg id="sparkle" xmlns="http://www.w3.org/2000/svg" viewBox="0 0 256 256">
  <g id="sparkle1">
    <path d="M204.49,115.48c-43.2,12.7-48.64,22.99-55.34,104.74-6.71-81.75-12.15-92.04-55.34-104.74,43.2-12.7,48.64-22.99,55.34-104.74,6.71,81.75,12.15,92.04,55.34,104.74Z" fill="#efd418" stroke-width="0"/>
  </g>
  <g id="sparkle2">
    <path d="M128.72,190.05c-26.64,7.83-30,14.18-34.14,64.6-4.14-50.42-7.49-56.77-34.14-64.6,26.64-7.83,30-14.18,34.14-64.6,4.14,50.42,7.49,56.77,34.14,64.6Z" fill="#efd418" stroke-width="0"/>
  </g>
  <g id="sparkle3">
    <path d="M131.79,48.81c-12.72,3.74-14.32,6.77-16.3,30.84-1.98-24.07-3.58-27.1-16.3-30.84,12.72-3.74,14.32-6.77,16.3-30.84,1.98,24.07,3.58,27.1,16.3,30.84Z" fill="#efd418" stroke-width="0"/>
  </g>
</svg>